<?xml version="1.0" encoding="utf-8"?>
<!-- Generator: Adobe Illustrator 24.1.0, SVG Export Plug-In . SVG Version: 6.00 Build 0)  -->
<svg version="1.1"
	 id="Layer_1" xmlns:cc="http://web.resource.org/cc/" xmlns:dc="http://purl.org/dc/elements/1.1/" xmlns:inkscape="http://www.inkscape.org/namespaces/inkscape" xmlns:ns1="http://sozi.baierouge.fr" xmlns:rdf="http://www.w3.org/1999/02/22-rdf-syntax-ns#" xmlns:sodipodi="http://sodipodi.sourceforge.net/DTD/sodipodi-0.dtd" xmlns:svg="http://www.w3.org/2000/svg"
	 xmlns="http://www.w3.org/2000/svg" xmlns:xlink="http://www.w3.org/1999/xlink" x="0px" y="0px" viewBox="0 0 590 570"
	 style="enable-background:new 0 0 590 570;" xml:space="preserve">
<style type="text/css">
	.st0{fill:#35EBFF;stroke:#000000;stroke-width:10;stroke-miterlimit:10;}
	.st1{fill:#808080;stroke:#000000;stroke-width:5.4623;}
	.st2{fill:#00FF00;stroke:#000000;stroke-width:5.0981;}
	.st3{fill:#0000FF;stroke:#000000;stroke-width:5.0981;}
	.st4{fill:#FF0000;stroke:#000000;stroke-width:5.0981;}
	.st5{fill:#FFFF00;stroke:#000000;stroke-width:5.0981;}
	.st6{fill:#FF0000;stroke:#333333;stroke-width:9.1038;}
	.st7{fill:#FF0000;stroke:#333333;stroke-width:9.1038;stroke-dasharray:8.0113,7.6763;}
	.st8{fill:#FF0000;stroke:#333333;stroke-width:5.4623;}
	.st9{fill:#FF0000;stroke:#333333;stroke-width:7.6472;stroke-dasharray:8.3755,8.3828;}
	.st10{fill:#FF0000;stroke:#333333;stroke-width:9.1038;stroke-dasharray:10.1962,10.2035;}
	.st11{fill:#666666;}
</style>
<rect class="st0" width="590" height="570"/>
<g transform="translate(0) scale(1)">
	<g id="Train" transform="translate(10)">
		<path id="frame" class="st1" d="M62.5,222l171.8-48.4c5.8-1.6,11.8,1.7,13.5,7.6l3.9,14c1.6,5.8-1.7,11.8-7.6,13.5L72.3,257.1
			c-5.8,1.6-11.8-1.7-13.5-7.6l-3.9-14C53.3,229.7,56.6,223.7,62.5,222z"/>
		<path id="engine" class="st2" d="M47.7,169.8l101.6-28.6c5.8-1.6,11.8,1.7,13.5,7.6l8.9,31.5c1.6,5.8-1.7,11.8-7.6,13.5
			L62.6,222.4c-5.8,1.6-11.8-1.7-13.5-7.6l-8.9-31.5C38.6,177.5,41.9,171.4,47.7,169.8z"/>
		<path id="stack" class="st3" d="M49.9,123.8l10.5-3c3.9-1.1,7.9,1.2,9,5l7.9,28c1.1,3.9-1.2,7.9-5,9l-10.5,3c-3.9,1.1-7.9-1.2-9-5
			l-7.9-28C43.8,128.9,46,124.9,49.9,123.8z"/>
		<path id="roof" class="st4" d="M120.7,66l80.6-22.7c3.9-1.1,7.9,1.2,9,5l2,7c1.1,3.9-1.2,7.9-5,9l-80.6,22.7c-3.9,1.1-7.9-1.2-9-5
			l-2-7C114.5,71.1,116.8,67.1,120.7,66z"/>
		<path id="cab" class="st5" d="M154.6,79.2l49.1-13.8c5.8-1.6,11.8,1.7,13.5,7.6l24.7,87.6c1.6,5.8-1.7,11.8-7.6,13.5l-49.1,13.8
			c-5.8,1.6-11.8-1.7-13.5-7.6l-24.7-87.6C145.4,86.8,148.8,80.8,154.6,79.2z"/>
		<path id="window" class="st3" d="M173.6,92.7l21-5.9c3.9-1.1,7.9,1.2,9,5l5.9,21c1.1,3.9-1.2,7.9-5,9l-21,5.9
			c-3.9,1.1-7.9-1.2-9-5l-5.9-21C167.5,97.8,169.7,93.8,173.6,92.7z"/>
		<g id="wheels">
			<circle class="st6" cx="97" cy="250.5" r="21.8"/>
			<circle id="spoke1" class="st7" cx="97" cy="250.5" r="12.7"/>
			<circle class="st8" cx="97" cy="250.5" r="5.5"/>
			<circle class="st6" cx="156.6" cy="233.7" r="21.8"/>
			<circle id="spoke2" class="st9" cx="156.6" cy="233.7" r="13.5"/>
			<circle class="st8" cx="156.6" cy="233.7" r="6.9"/>
			<circle class="st6" cx="218.7" cy="212.4" r="25.5"/>
			<circle id="spoke3" class="st10" cx="218.7" cy="212.4" r="16.4"/>
			<circle class="st8" cx="218.7" cy="212.4" r="9.1"/>
		</g>
		<path id="couplingrod" class="st11" d="M91,249.4l123.9-48.1c0.9-0.4,2,0.1,2.4,1l0.5,1.4c0.4,0.9-0.1,2-1,2.4L92.8,254.1
			c-0.9,0.4-2-0.1-2.4-1l-0.5-1.4C89.6,250.8,90,249.7,91,249.4z"/>
	</g>
</g>
<g>
	<g>
		<path d="M159.3,498.3h-12V490h12v-12.4h8.5V490h12v8.3h-12v12.4h-8.5V498.3z"/>
		<path d="M184.6,510.1c10.3-9.5,18.3-16.8,18.3-22.7c0-3.9-2.2-5.8-5.4-5.8c-2.9,0-5.1,2.1-7.2,4.1l-6.3-6.3c4.5-4.8,8.7-7,15.1-7
			c8.8,0,15,5.6,15,14.3c0,7-6.6,14.7-12.5,20.8c2.2-0.3,5.4-0.5,7.3-0.5h7.3v9.9h-31.6V510.1z"/>
		<path d="M246.6,482h-11.8v-9.9h35.5v9.9h-11.8v34.8h-11.8V482z"/>
		<path d="M276.8,472.1h16.9c9.6,0,17.9,3.3,17.9,14.4c0,10.8-8.3,15.3-17.9,15.3h-5.1v15h-11.8V472.1z M292.9,492.5
			c4.7,0,7.2-2.1,7.2-5.9c0-3.9-2.5-5.1-7.2-5.1h-4.3v11H292.9z M291.6,498.8l8-7.8l14.5,25.9h-13.2L291.6,498.8z"/>
		<path d="M328.2,472.1h14.3l13.6,44.7h-12.5l-5.1-21.7c-1.1-4.3-2.2-9.7-3.3-14.2h-0.3c-1,4.5-2.1,9.9-3.2,14.2l-5.1,21.7h-12.1
			L328.2,472.1z M324.3,498.2h21.9v9.2h-21.9V498.2z"/>
		<path d="M360.4,472.1h11.8v44.7h-11.8V472.1z"/>
		<path d="M382.1,472.1h12.1l9.9,20l4.3,10h0.3c-0.6-4.8-1.5-11.6-1.5-17.1v-12.9h11.3v44.7h-12.1l-9.9-20l-4.3-10h-0.3
			c0.6,5.1,1.5,11.6,1.5,17.1v12.9h-11.3V472.1z"/>
		<path d="M425.6,511.3l6.7-8.1c3.2,2.5,7.2,4.3,10.5,4.3c3.6,0,5.1-1.2,5.1-3.2c0-2.1-2.3-2.8-6.1-4.3l-5.6-2.3
			c-4.8-1.9-9-6-9-12.5c0-7.6,6.9-13.9,16.7-13.9c5.1,0,10.7,1.9,14.9,6l-5.9,7.4c-3-2.1-5.6-3.2-8.9-3.2c-2.9,0-4.7,1-4.7,3
			c0,2.1,2.5,2.9,6.6,4.5l5.4,2.1c5.6,2.2,8.7,6.1,8.7,12.2c0,7.6-6.3,14.3-17.5,14.3C436.9,517.7,430.4,515.6,425.6,511.3z"/>
	</g>
</g>
<g transform="translate(0) scale(1)">
	<g id="Train_1_" transform="translate(10)">
		<path id="frame_1_" class="st1" d="M304,324.7l170.9,51.2c5.8,1.7,9.1,7.8,7.3,13.6l-4.2,14c-1.7,5.8-7.8,9.1-13.6,7.3
			l-170.9-51.2c-5.8-1.7-9.1-7.8-7.3-13.6l4.2-14C292.1,326.3,298.2,323,304,324.7z"/>
		<path id="engine_1_" class="st2" d="M319.6,272.8l101.2,30.3c5.8,1.7,9.1,7.8,7.3,13.6l-9.4,31.4c-1.7,5.8-7.8,9.1-13.6,7.3
			l-101.2-30.3c-5.8-1.7-9.1-7.8-7.3-13.6l9.4-31.4C307.7,274.3,313.8,271,319.6,272.8z"/>
		<path id="stack_1_" class="st3" d="M346.1,235.1l10.5,3.1c3.9,1.2,6,5.2,4.9,9.1l-8.4,27.9c-1.2,3.9-5.2,6-9.1,4.9l-10.5-3.1
			c-3.9-1.2-6-5.2-4.9-9.1L337,240C338.1,236.1,342.2,233.9,346.1,235.1z"/>
		<path id="roof_1_" class="st4" d="M436.7,224.2l80.2,24c3.9,1.2,6,5.2,4.9,9.1l-2.1,7c-1.2,3.9-5.2,6-9.1,4.9l-80.2-24
			c-3.9-1.2-6-5.2-4.9-9.1l2.1-7C428.8,225.3,432.9,223.1,436.7,224.2z"/>
		<path id="cab_1_" class="st5" d="M458.4,253.5l48.8,14.6c5.8,1.7,9.1,7.8,7.3,13.6L488.4,369c-1.7,5.8-7.8,9.1-13.6,7.3L426,361.7
			c-5.8-1.7-9.1-7.8-7.3-13.6l26.1-87.2C446.5,255.1,452.6,251.8,458.4,253.5z"/>
		<path id="window_1_" class="st3" d="M467.1,275.1l20.9,6.3c3.9,1.2,6,5.2,4.9,9.1l-6.3,20.9c-1.2,3.9-5.2,6-9.1,4.9l-20.9-6.3
			c-3.9-1.2-6-5.2-4.9-9.1L458,280C459.2,276.2,463.3,274,467.1,275.1z"/>
		<g id="wheels_1_">
			<circle class="st6" cx="317.9" cy="367.3" r="21.8"/>
			<circle id="spoke1_1_" class="st7" cx="317.9" cy="367.3" r="12.7"/>
			<circle class="st8" cx="317.9" cy="367.3" r="5.5"/>
			<circle class="st6" cx="377.2" cy="385" r="21.8"/>
			<circle id="spoke2_1_" class="st9" cx="377.2" cy="385" r="13.5"/>
			<circle class="st8" cx="377.2" cy="385" r="6.9"/>
			<circle class="st6" cx="441" cy="400.4" r="25.5"/>
			<circle id="spoke3_1_" class="st10" cx="441" cy="400.4" r="16.4"/>
			<circle class="st8" cx="441" cy="400.4" r="9.1"/>
		</g>
		<path id="couplingrod_1_" class="st11" d="M313.4,363.1l130.4,25.8c1,0.2,1.6,1.2,1.4,2.1l-0.3,1.4c-0.2,1-1.2,1.6-2.1,1.4
			l-130.4-25.8c-1-0.2-1.6-1.2-1.4-2.1l0.3-1.4C311.5,363.6,312.4,362.9,313.4,363.1z"/>
	</g>
</g>
</svg>
