<?xml version="1.0" encoding="utf-8"?>
<!-- Generator: Adobe Illustrator 24.1.0, SVG Export Plug-In . SVG Version: 6.00 Build 0)  -->
<svg version="1.1"
	 id="Layer_1" xmlns:cc="http://web.resource.org/cc/" xmlns:dc="http://purl.org/dc/elements/1.1/" xmlns:inkscape="http://www.inkscape.org/namespaces/inkscape" xmlns:ns1="http://sozi.baierouge.fr" xmlns:rdf="http://www.w3.org/1999/02/22-rdf-syntax-ns#" xmlns:sodipodi="http://sodipodi.sourceforge.net/DTD/sodipodi-0.dtd" xmlns:svg="http://www.w3.org/2000/svg"
	 xmlns="http://www.w3.org/2000/svg" xmlns:xlink="http://www.w3.org/1999/xlink" x="0px" y="0px" viewBox="0 0 590 570"
	 style="enable-background:new 0 0 590 570;" xml:space="preserve">
<style type="text/css">
	.st0{fill:#35EBFF;stroke:#000000;stroke-width:10;stroke-miterlimit:10;}
	.st1{fill:#808080;stroke:#000000;stroke-width:5.4623;}
	.st2{fill:#00FF00;stroke:#000000;stroke-width:5.0981;}
	.st3{fill:#0000FF;stroke:#000000;stroke-width:5.0981;}
	.st4{fill:#FF0000;stroke:#000000;stroke-width:5.0981;}
	.st5{fill:#FFFF00;stroke:#000000;stroke-width:5.0981;}
	.st6{fill:#FF0000;stroke:#333333;stroke-width:9.1038;}
	.st7{fill:#FF0000;stroke:#333333;stroke-width:9.1038;stroke-dasharray:8.0113,7.6763;}
	.st8{fill:#FF0000;stroke:#333333;stroke-width:5.4623;}
	.st9{fill:#FF0000;stroke:#333333;stroke-width:7.6472;stroke-dasharray:8.3755,8.3828;}
	.st10{fill:#FF0000;stroke:#333333;stroke-width:9.1038;stroke-dasharray:10.1962,10.2035;}
	.st11{fill:#666666;}
</style>
<rect class="st0" width="590" height="570"/>
<g transform="translate(0) scale(1)">
	<g id="Train" transform="translate(10)">
		<path id="frame" class="st1" d="M42.3,128.5l157.5,83.9c5.3,2.8,7.3,9.5,4.5,14.8l-6.8,12.9c-2.8,5.3-9.5,7.3-14.8,4.5L25.1,160.6
			c-5.3-2.8-7.3-9.5-4.5-14.8l6.8-12.9C30.3,127.7,36.9,125.6,42.3,128.5z"/>
		<path id="engine" class="st2" d="M67.8,80.6l93.2,49.7c5.3,2.8,7.3,9.5,4.5,14.8L150.1,174c-2.8,5.3-9.5,7.3-14.8,4.5l-93.2-49.7
			c-5.3-2.8-7.3-9.5-4.5-14.8L53,85.1C55.8,79.8,62.5,77.8,67.8,80.6z"/>
		<path id="stack" class="st3" d="M101.2,48.9l9.6,5.1c3.5,1.9,4.9,6.3,3,9.9l-13.7,25.7c-1.9,3.5-6.3,4.9-9.9,3l-9.6-5.1
			c-3.5-1.9-4.9-6.3-3-9.9l13.7-25.7C93.2,48.3,97.6,47,101.2,48.9z"/>
		<path id="roof" class="st4" d="M192.2,56.1l73.9,39.4c3.5,1.9,4.9,6.3,3,9.9l-3.4,6.4c-1.9,3.5-6.3,4.9-9.9,3l-73.9-39.4
			c-3.5-1.9-4.9-6.3-3-9.9l3.4-6.4C184.3,55.6,188.7,54.2,192.2,56.1z"/>
		<path id="cab" class="st5" d="M207.7,89.1l45,24c5.3,2.8,7.3,9.5,4.5,14.8l-42.8,80.3c-2.8,5.3-9.5,7.3-14.8,4.5l-45-24
			c-5.3-2.8-7.3-9.5-4.5-14.8l42.8-80.3C195.7,88.3,202.3,86.3,207.7,89.1z"/>
		<path id="window" class="st3" d="M212,112l19.3,10.3c3.5,1.9,4.9,6.3,3,9.9L224,151.4c-1.9,3.5-6.3,4.9-9.9,3l-19.3-10.3
			c-3.5-1.9-4.9-6.3-3-9.9l10.3-19.3C204,111.5,208.4,110.1,212,112z"/>
		<g id="wheels">
			<circle class="st6" cx="47.5" cy="172.9" r="21.8"/>
			<circle id="spoke1" class="st7" cx="47.5" cy="172.9" r="12.7"/>
			<circle class="st8" cx="47.5" cy="172.9" r="5.5"/>
			<circle class="st6" cx="102.1" cy="202" r="21.8"/>
			<circle id="spoke2" class="st9" cx="102.1" cy="202" r="13.5"/>
			<circle class="st8" cx="102.1" cy="202" r="6.9"/>
			<circle class="st6" cx="161.7" cy="229.6" r="25.5"/>
			<circle id="spoke3" class="st10" cx="161.7" cy="229.6" r="16.4"/>
			<circle class="st8" cx="161.7" cy="229.6" r="9.1"/>
		</g>
		<path id="couplingrod" class="st11" d="M43.9,168l122.8,51c0.9,0.4,1.4,1.5,1,2.4l-0.6,1.3c-0.4,0.9-1.5,1.4-2.4,1L42,172.7
			c-0.9-0.4-1.4-1.5-1-2.4l0.6-1.3C41.9,168,43,167.6,43.9,168z"/>
	</g>
</g>
<g>
	<g>
		<path d="M159.3,498.3h-12V490h12v-12.4h8.5V490h12v8.3h-12v12.4h-8.5V498.3z"/>
		<path d="M183.5,511.5l5.4-7.4c2.7,2.5,5.8,4.1,8.9,4.1c3.9,0,6.3-1.4,6.3-4.1c0-3.3-1.7-5.2-10.9-5.2v-8.3c7.3,0,9.5-1.9,9.5-5
			c0-2.6-1.6-4-4.5-4c-2.9,0-5,1.2-7.7,3.6l-5.9-7.2c4.3-3.6,8.8-5.6,14.2-5.6c9.6,0,15.8,4.4,15.8,12.3c0,4.2-2.3,7.4-7,9.4v0.3
			c5,1.5,8.4,5,8.4,10.5c0,8.3-7.8,12.8-16.9,12.8C192,517.7,186.8,515.3,183.5,511.5z"/>
		<path d="M246.6,482h-11.8v-9.9h35.5v9.9h-11.8v34.8h-11.8V482z"/>
		<path d="M276.8,472.1h16.9c9.6,0,17.9,3.3,17.9,14.4c0,10.8-8.3,15.3-17.9,15.3h-5.1v15h-11.8V472.1z M292.9,492.5
			c4.7,0,7.2-2.1,7.2-5.9c0-3.9-2.5-5.1-7.2-5.1h-4.3v11H292.9z M291.6,498.8l8-7.8l14.5,25.9h-13.2L291.6,498.8z"/>
		<path d="M328.2,472.1h14.3l13.6,44.7h-12.5l-5.1-21.7c-1.1-4.3-2.2-9.7-3.3-14.2h-0.3c-1,4.5-2.1,9.9-3.2,14.2l-5.1,21.7h-12.1
			L328.2,472.1z M324.3,498.2h21.9v9.2h-21.9V498.2z"/>
		<path d="M360.4,472.1h11.8v44.7h-11.8V472.1z"/>
		<path d="M382.1,472.1h12.1l9.9,20l4.3,10h0.3c-0.6-4.8-1.5-11.6-1.5-17.1v-12.9h11.3v44.7h-12.1l-9.9-20l-4.3-10h-0.3
			c0.6,5.1,1.5,11.6,1.5,17.1v12.9h-11.3V472.1z"/>
		<path d="M425.6,511.3l6.7-8.1c3.2,2.5,7.2,4.3,10.5,4.3c3.6,0,5.1-1.2,5.1-3.2c0-2.1-2.3-2.8-6.1-4.3l-5.6-2.3
			c-4.8-1.9-9-6-9-12.5c0-7.6,6.9-13.9,16.7-13.9c5.1,0,10.7,1.9,14.9,6l-5.9,7.4c-3-2.1-5.6-3.2-8.9-3.2c-2.9,0-4.7,1-4.7,3
			c0,2.1,2.5,2.9,6.6,4.5l5.4,2.1c5.6,2.2,8.7,6.1,8.7,12.2c0,7.6-6.3,14.3-17.5,14.3C436.9,517.7,430.4,515.6,425.6,511.3z"/>
	</g>
</g>
<g transform="translate(0) scale(1)">
	<g id="Train_1_" transform="translate(10)">
		<path id="frame_1_" class="st1" d="M183.2,375.4l175.7,31.1c5.9,1.1,9.9,6.7,8.8,12.7l-2.5,14.3c-1.1,5.9-6.7,9.9-12.7,8.8
			l-175.7-31.1c-5.9-1.1-9.9-6.7-8.8-12.7l2.5-14.3C171.6,378.3,177.2,374.3,183.2,375.4z"/>
		<path id="engine_1_" class="st2" d="M192.7,322l104,18.4c5.9,1.1,9.9,6.7,8.8,12.7l-5.7,32.3c-1.1,5.9-6.7,9.9-12.7,8.8l-104-18.4
			c-5.9-1.1-9.9-6.7-8.8-12.7l5.7-32.3C181,324.9,186.7,320.9,192.7,322z"/>
		<path id="stack_1_" class="st3" d="M214.6,281.5l10.8,1.9c4,0.7,6.6,4.5,5.9,8.4l-5.1,28.7c-0.7,4-4.5,6.6-8.4,5.9l-10.8-1.9
			c-4-0.7-6.6-4.5-5.9-8.4l5.1-28.7C206.9,283.4,210.7,280.8,214.6,281.5z"/>
		<path id="roof_1_" class="st4" d="M303.4,260.3l82.5,14.6c4,0.7,6.6,4.5,5.9,8.4l-1.3,7.2c-0.7,4-4.5,6.6-8.4,5.9l-82.5-14.6
			c-4-0.7-6.6-4.5-5.9-8.4l1.3-7.2C295.7,262.2,299.5,259.5,303.4,260.3z"/>
		<path id="cab_1_" class="st5" d="M328.3,286.9l50.2,8.9c5.9,1.1,9.9,6.7,8.8,12.7l-15.9,89.6c-1.1,5.9-6.7,9.9-12.7,8.8l-50.2-8.9
			c-5.9-1.1-9.9-6.7-8.8-12.7l15.9-89.6C316.7,289.8,322.4,285.8,328.3,286.9z"/>
		<path id="window_1_" class="st3" d="M339.5,307.3l21.5,3.8c4,0.7,6.6,4.5,5.9,8.4l-3.8,21.5c-0.7,4-4.5,6.6-8.4,5.9l-21.5-3.8
			c-4-0.7-6.6-4.5-5.9-8.4l3.8-21.5C331.7,309.3,335.5,306.6,339.5,307.3z"/>
		<g id="wheels_1_">
			<circle class="st6" cx="201.9" cy="416.1" r="21.8"/>
			<circle id="spoke1_1_" class="st7" cx="201.9" cy="416.1" r="12.7"/>
			<circle class="st8" cx="201.9" cy="416.1" r="5.5"/>
			<circle class="st6" cx="262.8" cy="426.9" r="21.8"/>
			<circle id="spoke2_1_" class="st9" cx="262.8" cy="426.9" r="13.5"/>
			<circle class="st8" cx="262.8" cy="426.9" r="6.9"/>
			<circle class="st6" cx="328" cy="434.7" r="25.5"/>
			<circle id="spoke3_1_" class="st10" cx="328" cy="434.7" r="16.4"/>
			<circle class="st8" cx="328" cy="434.7" r="9.1"/>
		</g>
		<path id="couplingrod_1_" class="st11" d="M196.9,412.4L329.4,423c1,0.1,1.8,1,1.7,2l-0.1,1.5c-0.1,1-1,1.8-2,1.7l-132.5-10.6
			c-1-0.1-1.8-1-1.7-2l0.1-1.5C195.1,413.1,195.9,412.3,196.9,412.4z"/>
	</g>
</g>
<g transform="translate(0) scale(1)">
	<g id="Train_2_" transform="translate(10)">
		<path id="frame_2_" class="st1" d="M322.6,184.1l176.4-26.8c6-0.9,11.5,3.2,12.4,9.2l2.2,14.4c0.9,6-3.2,11.5-9.2,12.4
			l-176.4,26.8c-6,0.9-11.5-3.2-12.4-9.2l-2.2-14.4C312.6,190.6,316.7,185,322.6,184.1z"/>
		<path id="engine_2_" class="st2" d="M314.5,130.5l104.4-15.8c6-0.9,11.5,3.2,12.4,9.2l4.9,32.4c0.9,6-3.2,11.5-9.2,12.4
			l-104.4,15.8c-6,0.9-11.5-3.2-12.4-9.2l-4.9-32.4C304.4,136.9,308.5,131.4,314.5,130.5z"/>
		<path id="stack_2_" class="st3" d="M322.3,85.1l10.8-1.6c4-0.6,7.7,2.1,8.3,6.1l4.4,28.8c0.6,4-2.1,7.7-6.1,8.3l-10.8,1.6
			c-4,0.6-7.7-2.1-8.3-6.1l-4.4-28.8C315.6,89.4,318.4,85.7,322.3,85.1z"/>
		<path id="roof_2_" class="st4" d="M399.7,36.5l82.8-12.6c4-0.6,7.7,2.1,8.3,6.1l1.1,7.2c0.6,4-2.1,7.7-6.1,8.3L403,58.1
			c-4,0.6-7.7-2.1-8.3-6.1l-1.1-7.2C393,40.8,395.7,37.1,399.7,36.5z"/>
		<path id="cab_2_" class="st5" d="M431.8,53.7l50.4-7.6c6-0.9,11.5,3.2,12.4,9.2l13.7,90c0.9,6-3.2,11.5-9.2,12.4l-50.4,7.6
			c-6,0.9-11.5-3.2-12.4-9.2l-13.7-90C421.7,60.2,425.8,54.6,431.8,53.7z"/>
		<path id="window_2_" class="st3" d="M448.9,69.6l21.6-3.3c4-0.6,7.7,2.1,8.3,6.1l3.3,21.6c0.6,4-2.1,7.7-6.1,8.3l-21.6,3.3
			c-4,0.6-7.7-2.1-8.3-6.1l-3.3-21.6C442.2,73.9,444.9,70.2,448.9,69.6z"/>
		<g id="wheels_2_">
			<circle class="st6" cx="353.4" cy="216.6" r="21.8"/>
			<circle id="spoke1_2_" class="st7" cx="353.4" cy="216.6" r="12.7"/>
			<circle class="st8" cx="353.4" cy="216.6" r="5.5"/>
			<circle class="st6" cx="414.6" cy="207.4" r="21.8"/>
			<circle id="spoke2_2_" class="st9" cx="414.6" cy="207.4" r="13.5"/>
			<circle class="st8" cx="414.6" cy="207.4" r="6.9"/>
			<circle class="st6" cx="478.8" cy="193.9" r="25.5"/>
			<circle id="spoke3_2_" class="st10" cx="478.8" cy="193.9" r="16.4"/>
			<circle class="st8" cx="478.8" cy="193.9" r="9.1"/>
		</g>
		<path id="couplingrod_2_" class="st11" d="M347.5,214.8l128.9-32.4c1-0.2,2,0.3,2.2,1.3l0.4,1.4c0.2,1-0.3,2-1.3,2.2l-128.9,32.4
			c-1,0.2-2-0.3-2.2-1.3l-0.4-1.4C346,216,346.6,215,347.5,214.8z"/>
	</g>
</g>
</svg>
