<?xml version="1.0" encoding="utf-8"?>
<!-- Generator: Adobe Illustrator 24.1.0, SVG Export Plug-In . SVG Version: 6.00 Build 0)  -->
<svg version="1.1"
	 id="Layer_1" xmlns:cc="http://web.resource.org/cc/" xmlns:dc="http://purl.org/dc/elements/1.1/" xmlns:inkscape="http://www.inkscape.org/namespaces/inkscape" xmlns:ns1="http://sozi.baierouge.fr" xmlns:rdf="http://www.w3.org/1999/02/22-rdf-syntax-ns#" xmlns:sodipodi="http://sodipodi.sourceforge.net/DTD/sodipodi-0.dtd" xmlns:svg="http://www.w3.org/2000/svg"
	 xmlns="http://www.w3.org/2000/svg" xmlns:xlink="http://www.w3.org/1999/xlink" x="0px" y="0px" viewBox="0 0 590 570"
	 style="enable-background:new 0 0 590 570;" xml:space="preserve">
<style type="text/css">
	.st0{fill:#35EBFF;stroke:#000000;stroke-width:10;stroke-miterlimit:10;}
	.st1{fill:#808080;stroke:#000000;stroke-width:5.4623;}
	.st2{fill:#00FF00;stroke:#000000;stroke-width:5.0981;}
	.st3{fill:#0000FF;stroke:#000000;stroke-width:5.0981;}
	.st4{fill:#FF0000;stroke:#000000;stroke-width:5.0981;}
	.st5{fill:#FFFF00;stroke:#000000;stroke-width:5.0981;}
	.st6{fill:#FF0000;stroke:#333333;stroke-width:9.1038;}
	.st7{fill:#FF0000;stroke:#333333;stroke-width:9.1038;stroke-dasharray:8.0113,7.6763;}
	.st8{fill:#FF0000;stroke:#333333;stroke-width:5.4623;}
	.st9{fill:#FF0000;stroke:#333333;stroke-width:7.6472;stroke-dasharray:8.3755,8.3828;}
	.st10{fill:#FF0000;stroke:#333333;stroke-width:9.1038;stroke-dasharray:10.1962,10.2035;}
	.st11{fill:#666666;}
</style>
<rect class="st0" width="590" height="570"/>
<g transform="translate(0) scale(1)">
	<g id="Train" transform="translate(10)">
		<path id="frame" class="st1" d="M63.2,197.6L235,149.3c5.8-1.6,11.8,1.7,13.5,7.6l3.9,14c1.6,5.8-1.7,11.8-7.6,13.5L73.1,232.7
			c-5.8,1.6-11.8-1.7-13.5-7.6l-3.9-14C54,205.3,57.4,199.3,63.2,197.6z"/>
		<path id="engine" class="st2" d="M48.5,145.4l101.6-28.6c5.8-1.6,11.8,1.7,13.5,7.6l8.9,31.5c1.6,5.8-1.7,11.8-7.6,13.5L63.3,198
			c-5.8,1.6-11.8-1.7-13.5-7.6l-8.9-31.5C39.3,153.1,42.7,147.1,48.5,145.4z"/>
		<path id="stack" class="st3" d="M50.7,99.4l10.5-3c3.9-1.1,7.9,1.2,9,5l7.9,28c1.1,3.9-1.2,7.9-5,9l-10.5,3c-3.9,1.1-7.9-1.2-9-5
			l-7.9-28C44.5,104.5,46.8,100.5,50.7,99.4z"/>
		<path id="roof" class="st4" d="M121.4,41.7L202,18.9c3.9-1.1,7.9,1.2,9,5l2,7c1.1,3.9-1.2,7.9-5,9l-80.6,22.7
			c-3.9,1.1-7.9-1.2-9-5l-2-7C115.3,46.8,117.5,42.7,121.4,41.7z"/>
		<path id="cab" class="st5" d="M155.4,54.8L204.4,41c5.8-1.6,11.8,1.7,13.5,7.6l24.7,87.6c1.6,5.8-1.7,11.8-7.6,13.5L186,163.4
			c-5.8,1.6-11.8-1.7-13.5-7.6l-24.7-87.6C146.2,62.5,149.6,56.4,155.4,54.8z"/>
		<path id="window" class="st3" d="M174.3,68.4l21-5.9c3.9-1.1,7.9,1.2,9,5l5.9,21c1.1,3.9-1.2,7.9-5,9l-21,5.9
			c-3.9,1.1-7.9-1.2-9-5l-5.9-21C168.2,73.5,170.5,69.5,174.3,68.4z"/>
		<g id="wheels">
			<circle class="st6" cx="97.7" cy="226.1" r="21.8"/>
			<circle id="spoke1" class="st7" cx="97.7" cy="226.1" r="12.7"/>
			<circle class="st8" cx="97.7" cy="226.1" r="5.5"/>
			<circle class="st6" cx="157.3" cy="209.4" r="21.8"/>
			<circle id="spoke2" class="st9" cx="157.3" cy="209.4" r="13.5"/>
			<circle class="st8" cx="157.3" cy="209.4" r="6.9"/>
			<circle class="st6" cx="219.4" cy="188.1" r="25.5"/>
			<circle id="spoke3" class="st10" cx="219.4" cy="188.1" r="16.4"/>
			<circle class="st8" cx="219.4" cy="188.1" r="9.1"/>
		</g>
		<path id="couplingrod" class="st11" d="M91.7,225l123.9-48.1c0.9-0.4,2,0.1,2.4,1l0.5,1.4c0.4,0.9-0.1,2-1,2.4L93.6,229.8
			c-0.9,0.4-2-0.1-2.4-1l-0.5-1.4C90.3,226.4,90.8,225.4,91.7,225z"/>
	</g>
</g>
<g>
	<g>
		<path d="M159.3,498.3h-12V490h12v-12.4h8.5V490h12v8.3h-12v12.4h-8.5V498.3z"/>
		<path d="M202.1,493.2c0-3,0.3-7.4,0.4-10.3h-0.3c-1.1,2.6-2.3,5.2-3.6,7.8l-4,7.4h23.1v8.9h-34.3v-8.3l14.9-25.6h14.7v43.6h-11
			V493.2z"/>
		<path d="M246.6,482h-11.8v-9.9h35.5v9.9h-11.8v34.8h-11.8V482z"/>
		<path d="M276.8,472.1h16.9c9.6,0,17.9,3.3,17.9,14.4c0,10.8-8.3,15.3-17.9,15.3h-5.1v15h-11.8V472.1z M292.9,492.5
			c4.7,0,7.2-2.1,7.2-5.9c0-3.9-2.5-5.1-7.2-5.1h-4.3v11H292.9z M291.6,498.8l8-7.8l14.5,25.9h-13.2L291.6,498.8z"/>
		<path d="M328.2,472.1h14.3l13.6,44.7h-12.5l-5.1-21.7c-1.1-4.3-2.2-9.7-3.3-14.2h-0.3c-1,4.5-2.1,9.9-3.2,14.2l-5.1,21.7h-12.1
			L328.2,472.1z M324.3,498.2h21.9v9.2h-21.9V498.2z"/>
		<path d="M360.4,472.1h11.8v44.7h-11.8V472.1z"/>
		<path d="M382.1,472.1h12.1l9.9,20l4.3,10h0.3c-0.6-4.8-1.5-11.6-1.5-17.1v-12.9h11.3v44.7h-12.1l-9.9-20l-4.3-10h-0.3
			c0.6,5.1,1.5,11.6,1.5,17.1v12.9h-11.3V472.1z"/>
		<path d="M425.6,511.3l6.7-8.1c3.2,2.5,7.2,4.3,10.5,4.3c3.6,0,5.1-1.2,5.1-3.2c0-2.1-2.3-2.8-6.1-4.3l-5.6-2.3
			c-4.8-1.9-9-6-9-12.5c0-7.6,6.9-13.9,16.7-13.9c5.1,0,10.7,1.9,14.9,6l-5.9,7.4c-3-2.1-5.6-3.2-8.9-3.2c-2.9,0-4.7,1-4.7,3
			c0,2.1,2.5,2.9,6.6,4.5l5.4,2.1c5.6,2.2,8.7,6.1,8.7,12.2c0,7.6-6.3,14.3-17.5,14.3C436.9,517.7,430.4,515.6,425.6,511.3z"/>
	</g>
</g>
<g transform="translate(0) scale(1)">
	<g id="Train_1_" transform="translate(10)">
		<path id="frame_1_" class="st1" d="M61.1,385.3l177.7,16.4c6,0.6,10.4,5.9,9.9,11.9l-1.3,14.5c-0.6,6-5.9,10.4-11.9,9.9
			L57.7,421.6c-6-0.6-10.4-5.9-9.9-11.9l1.3-14.5C49.8,389.2,55.1,384.8,61.1,385.3z"/>
		<path id="engine_1_" class="st2" d="M66.1,331.3l105.2,9.7c6,0.6,10.4,5.9,9.9,11.9l-3,32.6c-0.6,6-5.9,10.4-11.9,9.9l-105.2-9.7
			c-6-0.6-10.4-5.9-9.9-11.9l3-32.6C54.7,335.2,60.1,330.7,66.1,331.3z"/>
		<path id="stack_1_" class="st3" d="M84.6,289.1l10.9,1c4,0.4,7,3.9,6.6,7.9l-2.7,29c-0.4,4-3.9,7-7.9,6.6l-10.9-1
			c-4-0.4-7-3.9-6.6-7.9l2.7-29C77,291.7,80.6,288.7,84.6,289.1z"/>
		<path id="roof_1_" class="st4" d="M171.3,260.5l83.4,7.7c4,0.4,7,3.9,6.6,7.9l-0.7,7.3c-0.4,4-3.9,7-7.9,6.6l-83.4-7.7
			c-4-0.4-7-3.9-6.6-7.9l0.7-7.3C163.8,263.1,167.3,260.2,171.3,260.5z"/>
		<path id="cab_1_" class="st5" d="M198.3,284.9l50.8,4.7c6,0.6,10.4,5.9,9.9,11.9l-8.3,90.7c-0.6,6-5.9,10.4-11.9,9.9l-50.8-4.7
			c-6-0.6-10.4-5.9-9.9-11.9l8.3-90.7C187,288.8,192.3,284.4,198.3,284.9z"/>
		<path id="window_1_" class="st3" d="M211.2,304.4l21.8,2c4,0.4,7,3.9,6.6,7.9l-2,21.8c-0.4,4-3.9,7-7.9,6.6l-21.8-2
			c-4-0.4-7-3.9-6.6-7.9l2-21.8C203.6,307,207.2,304,211.2,304.4z"/>
		<g id="wheels_1_">
			<circle class="st6" cx="83.1" cy="424.3" r="21.8"/>
			<circle id="spoke1_1_" class="st7" cx="83.1" cy="424.3" r="12.7"/>
			<circle class="st8" cx="83.1" cy="424.3" r="5.5"/>
			<circle class="st6" cx="144.7" cy="429.9" r="21.8"/>
			<circle id="spoke2_1_" class="st9" cx="144.7" cy="429.9" r="13.5"/>
			<circle class="st8" cx="144.7" cy="429.9" r="6.9"/>
			<circle class="st6" cx="210.3" cy="432.3" r="25.5"/>
			<circle id="spoke3_1_" class="st10" cx="210.3" cy="432.3" r="16.4"/>
			<circle class="st8" cx="210.3" cy="432.3" r="9.1"/>
		</g>
		<path id="couplingrod_1_" class="st11" d="M77.9,421.1l132.9-0.6c1,0,1.8,0.8,1.8,1.8l0,1.5c0,1-0.8,1.8-1.8,1.8l-132.9,0.6
			c-1,0-1.8-0.8-1.8-1.8l0-1.5C76.1,421.9,76.9,421.1,77.9,421.1z"/>
	</g>
</g>
<g transform="translate(0) scale(1)">
	<g id="Train_2_" transform="translate(10)">
		<path id="frame_2_" class="st1" d="M316.7,173l178.4-3.7c6-0.1,11,4.7,11.1,10.7l0.3,14.6c0.1,6-4.7,11-10.7,11.1l-178.4,3.7
			c-6,0.1-11-4.7-11.1-10.7l-0.3-14.6C305.9,178.1,310.7,173.1,316.7,173z"/>
		<path id="engine_2_" class="st2" d="M315.6,118.7l105.6-2.2c6-0.1,11,4.7,11.1,10.7L433,160c0.1,6-4.7,11-10.7,11.1l-105.6,2.2
			c-6,0.1-11-4.7-11.1-10.7l-0.7-32.8C304.8,123.8,309.6,118.9,315.6,118.7z"/>
		<path id="stack_2_" class="st3" d="M329.3,74.7l10.9-0.2c4-0.1,7.3,3.1,7.4,7.1l0.6,29.1c0.1,4-3.1,7.3-7.1,7.4l-10.9,0.2
			c-4,0.1-7.3-3.1-7.4-7.1l-0.6-29.1C322.1,78.2,325.3,74.8,329.3,74.7z"/>
		<path id="roof_2_" class="st4" d="M412.3,36.6l83.7-1.7c4-0.1,7.3,3.1,7.4,7.1l0.1,7.3c0.1,4-3.1,7.3-7.1,7.4l-83.7,1.7
			c-4,0.1-7.3-3.1-7.4-7.1l-0.1-7.3C405.1,40,408.3,36.7,412.3,36.6z"/>
		<path id="cab_2_" class="st5" d="M441.9,57.9l51-1c6-0.1,11,4.7,11.1,10.7l1.9,91c0.1,6-4.7,11-10.7,11.1l-51,1
			c-6,0.1-11-4.7-11.1-10.7l-1.9-91C431,63,435.8,58,441.9,57.9z"/>
		<path id="window_2_" class="st3" d="M456.8,75.8l21.8-0.4c4-0.1,7.3,3.1,7.4,7.1l0.4,21.8c0.1,4-3.1,7.3-7.1,7.4l-21.8,0.4
			c-4,0.1-7.3-3.1-7.4-7.1l-0.4-21.8C449.6,79.2,452.8,75.8,456.8,75.8z"/>
		<g id="wheels_2_">
			<circle class="st6" cx="343" cy="209.2" r="21.8"/>
			<circle id="spoke1_2_" class="st7" cx="343" cy="209.2" r="12.7"/>
			<circle class="st8" cx="343" cy="209.2" r="5.5"/>
			<circle class="st6" cx="404.9" cy="208" r="21.8"/>
			<circle id="spoke2_2_" class="st9" cx="404.9" cy="208" r="13.5"/>
			<circle class="st8" cx="404.9" cy="208" r="6.9"/>
			<circle class="st6" cx="470.3" cy="203" r="25.5"/>
			<circle id="spoke3_2_" class="st10" cx="470.3" cy="203" r="16.4"/>
			<circle class="st8" cx="470.3" cy="203" r="9.1"/>
		</g>
		<path id="couplingrod_2_" class="st11" d="M337.5,206.6l132-15.5c1-0.1,1.9,0.6,2,1.6l0.2,1.4c0.1,1-0.6,1.9-1.6,2l-132,15.5
			c-1,0.1-1.9-0.6-2-1.6l-0.2-1.4C335.7,207.6,336.5,206.7,337.5,206.6z"/>
	</g>
</g>
<g transform="translate(0) scale(1)">
	<g id="Train_3_" transform="translate(10)">
		<path id="frame_3_" class="st1" d="M309.4,323.4l152.4,92.8c5.2,3.1,6.8,9.9,3.6,15l-7.6,12.4c-3.1,5.2-9.9,6.8-15,3.6
			l-152.4-92.8c-5.2-3.1-6.8-9.9-3.6-15l7.6-12.4C297.6,321.9,304.3,320.3,309.4,323.4z"/>
		<path id="engine_3_" class="st2" d="M337.7,277.1l90.2,54.9c5.2,3.1,6.8,9.9,3.6,15l-17.1,28c-3.1,5.2-9.9,6.8-15,3.6l-90.2-54.9
			c-5.2-3.1-6.8-9.9-3.6-15l17.1-28C325.8,275.6,332.5,273.9,337.7,277.1z"/>
		<path id="stack_3_" class="st3" d="M372.8,247.3l9.3,5.7c3.4,2.1,4.5,6.6,2.4,10l-15.2,24.9c-2.1,3.4-6.6,4.5-10,2.4l-9.3-5.7
			c-3.4-2.1-4.5-6.6-2.4-10l15.2-24.9C364.9,246.3,369.4,245.2,372.8,247.3z"/>
		<path id="roof_3_" class="st4" d="M463.3,259.8l71.5,43.6c3.4,2.1,4.5,6.6,2.4,10l-3.8,6.2c-2.1,3.4-6.6,4.5-10,2.4L452,278.5
			c-3.4-2.1-4.5-6.6-2.4-10l3.8-6.2C455.4,258.8,459.9,257.7,463.3,259.8z"/>
		<path id="cab_3_" class="st5" d="M476.8,293.6l43.5,26.5c5.2,3.1,6.8,9.9,3.6,15l-47.4,77.7c-3.1,5.2-9.9,6.8-15,3.6L418.1,390
			c-5.2-3.1-6.8-9.9-3.6-15l47.4-77.7C465,292.1,471.7,290.5,476.8,293.6z"/>
		<path id="window_3_" class="st3" d="M479.8,316.8l18.7,11.4c3.4,2.1,4.5,6.6,2.4,10l-11.4,18.7c-2.1,3.4-6.6,4.5-10,2.4
			l-18.7-11.4c-3.4-2.1-4.5-6.6-2.4-10l11.4-18.7C471.9,315.8,476.4,314.7,479.8,316.8z"/>
		<g id="wheels_3_">
			<circle class="st6" cx="312.1" cy="368.1" r="21.8"/>
			<circle id="spoke1_3_" class="st7" cx="312.1" cy="368.1" r="12.7"/>
			<circle class="st8" cx="312.1" cy="368.1" r="5.5"/>
			<circle class="st6" cx="364.9" cy="400.3" r="21.8"/>
			<circle id="spoke2_3_" class="st9" cx="364.9" cy="400.3" r="13.5"/>
			<circle class="st8" cx="364.9" cy="400.3" r="6.9"/>
			<circle class="st6" cx="422.8" cy="431.3" r="25.5"/>
			<circle id="spoke3_3_" class="st10" cx="422.8" cy="431.3" r="16.4"/>
			<circle class="st8" cx="422.8" cy="431.3" r="9.1"/>
		</g>
		<path id="couplingrod_3_" class="st11" d="M308.8,362.9l119.6,58c0.9,0.4,1.3,1.5,0.8,2.4l-0.6,1.3c-0.4,0.9-1.5,1.3-2.4,0.8
			l-119.6-58c-0.9-0.4-1.3-1.5-0.8-2.4l0.6-1.3C306.8,362.8,307.9,362.5,308.8,362.9z"/>
	</g>
</g>
</svg>
