<?xml version="1.0" encoding="utf-8"?>
<!-- Generator: Adobe Illustrator 24.1.0, SVG Export Plug-In . SVG Version: 6.00 Build 0)  -->
<svg version="1.1"
	 id="Layer_1" xmlns:cc="http://web.resource.org/cc/" xmlns:dc="http://purl.org/dc/elements/1.1/" xmlns:inkscape="http://www.inkscape.org/namespaces/inkscape" xmlns:ns1="http://sozi.baierouge.fr" xmlns:rdf="http://www.w3.org/1999/02/22-rdf-syntax-ns#" xmlns:sodipodi="http://sodipodi.sourceforge.net/DTD/sodipodi-0.dtd" xmlns:svg="http://www.w3.org/2000/svg"
	 xmlns="http://www.w3.org/2000/svg" xmlns:xlink="http://www.w3.org/1999/xlink" x="0px" y="0px" viewBox="0 0 590 570"
	 style="enable-background:new 0 0 590 570;" xml:space="preserve">
<style type="text/css">
	.st0{fill:#35EBFF;stroke:#000000;stroke-width:10;stroke-miterlimit:10;}
	.st1{fill:#808080;stroke:#000000;stroke-width:5.4623;}
	.st2{fill:#00FF00;stroke:#000000;stroke-width:5.0981;}
	.st3{fill:#0000FF;stroke:#000000;stroke-width:5.0981;}
	.st4{fill:#FF0000;stroke:#000000;stroke-width:5.0981;}
	.st5{fill:#FFFF00;stroke:#000000;stroke-width:5.0981;}
	.st6{fill:#FF0000;stroke:#333333;stroke-width:9.1038;}
	.st7{fill:#FF0000;stroke:#333333;stroke-width:9.1038;stroke-dasharray:8.0113,7.6763;}
	.st8{fill:#FF0000;stroke:#333333;stroke-width:5.4623;}
	.st9{fill:#FF0000;stroke:#333333;stroke-width:7.6472;stroke-dasharray:8.3755,8.3828;}
	.st10{fill:#FF0000;stroke:#333333;stroke-width:9.1038;stroke-dasharray:10.1962,10.2035;}
	.st11{fill:#666666;}
	.st12{fill:none;stroke:#DF1900;stroke-width:10;stroke-miterlimit:10;}
</style>
<rect class="st0" width="590" height="570"/>
<g>
	<g>
		<path d="M148,495.3h17.3v8.3H148V495.3z"/>
		<path d="M170.9,510.1c10.3-9.5,18.3-16.8,18.3-22.7c0-3.9-2.2-5.8-5.4-5.8c-2.9,0-5.1,2.1-7.2,4.1l-6.3-6.3c4.5-4.8,8.7-7,15.1-7
			c8.8,0,15,5.6,15,14.3c0,7-6.6,14.7-12.5,20.8c2.2-0.3,5.4-0.5,7.3-0.5h7.3v9.9h-31.6V510.1z"/>
		<path d="M232.8,482H221v-9.9h35.5v9.9h-11.8v34.8h-11.8V482z"/>
		<path d="M263.1,472.1H280c9.6,0,17.9,3.3,17.9,14.4c0,10.8-8.3,15.3-17.9,15.3h-5.1v15h-11.8V472.1z M279.2,492.5
			c4.7,0,7.2-2.1,7.2-5.9c0-3.9-2.5-5.1-7.2-5.1h-4.3v11H279.2z M277.9,498.8l8-7.8l14.5,25.9h-13.2L277.9,498.8z"/>
		<path d="M314.4,472.1h14.3l13.6,44.7h-12.5l-5.1-21.7c-1.1-4.3-2.2-9.7-3.3-14.2h-0.3c-1,4.5-2.1,9.9-3.2,14.2l-5.1,21.7h-12.1
			L314.4,472.1z M310.5,498.2h21.9v9.2h-21.9V498.2z"/>
		<path d="M346.6,472.1h11.8v44.7h-11.8V472.1z"/>
		<path d="M368.3,472.1h12.1l9.9,20l4.3,10h0.3c-0.6-4.8-1.5-11.6-1.5-17.1v-12.9h11.3v44.7h-12.1l-9.9-20l-4.3-10h-0.3
			c0.6,5.1,1.5,11.6,1.5,17.1v12.9h-11.3V472.1z"/>
		<path d="M411.8,511.3l6.7-8.1c3.2,2.5,7.2,4.3,10.5,4.3c3.6,0,5.1-1.2,5.1-3.2c0-2.1-2.3-2.8-6.1-4.3l-5.6-2.3
			c-4.8-1.9-9-6-9-12.5c0-7.6,6.9-13.9,16.7-13.9c5.1,0,10.7,1.9,14.9,6l-5.9,7.4c-3-2.1-5.6-3.2-8.9-3.2c-2.9,0-4.7,1-4.7,3
			c0,2.1,2.5,2.9,6.6,4.5l5.4,2.1c5.6,2.2,8.7,6.1,8.7,12.2c0,7.6-6.3,14.3-17.5,14.3C423.1,517.7,416.6,515.6,411.8,511.3z"/>
	</g>
</g>
<g transform="translate(0) scale(1)">
	<g id="Train_1_" transform="translate(10)">
		<path id="frame_1_" class="st1" d="M67.7,284l177.6-16.7c6-0.6,11.3,3.8,11.9,9.9l1.4,14.5c0.6,6-3.8,11.3-9.9,11.9L71.1,320.3
			c-6,0.6-11.3-3.8-11.9-9.9l-1.4-14.5C57.3,289.9,61.7,284.6,67.7,284z"/>
		<path id="engine_1_" class="st2" d="M62.6,230l105.1-9.9c6-0.6,11.3,3.8,11.9,9.9l3.1,32.6c0.6,6-3.8,11.3-9.9,11.9l-105.1,9.9
			c-6,0.6-11.3-3.8-11.9-9.9l-3.1-32.6C52.2,235.9,56.6,230.6,62.6,230z"/>
		<path id="stack_1_" class="st3" d="M73,185.1l10.9-1c4-0.4,7.6,2.6,7.9,6.6l2.7,29c0.4,4-2.6,7.6-6.6,7.9l-10.9,1
			c-4,0.4-7.6-2.6-7.9-6.6l-2.7-29C66.1,189,69,185.5,73,185.1z"/>
		<path id="roof_1_" class="st4" d="M153,141l83.4-7.8c4-0.4,7.6,2.6,7.9,6.6l0.7,7.3c0.4,4-2.6,7.6-6.6,7.9l-83.4,7.8
			c-4,0.4-7.6-2.6-7.9-6.6l-0.7-7.3C146.1,144.9,149,141.4,153,141z"/>
		<path id="cab_1_" class="st5" d="M184.1,160l50.8-4.8c6-0.6,11.3,3.8,11.9,9.9l8.5,90.6c0.6,6-3.8,11.3-9.9,11.9l-50.8,4.8
			c-6,0.6-11.3-3.8-11.9-9.9l-8.5-90.6C173.7,165.9,178.1,160.6,184.1,160z"/>
		<path id="window_1_" class="st3" d="M200.3,176.8l21.8-2c4-0.4,7.6,2.6,7.9,6.6l2,21.8c0.4,4-2.6,7.6-6.6,7.9l-21.8,2
			c-4,0.4-7.6-2.6-7.9-6.6l-2-21.8C193.3,180.7,196.3,177.2,200.3,176.8z"/>
		<g id="wheels_1_">
			<circle class="st6" cx="96.5" cy="318.2" r="21.8"/>
			<circle id="spoke1_1_" class="st7" cx="96.5" cy="318.2" r="12.7"/>
			<circle class="st8" cx="96.5" cy="318.2" r="5.5"/>
			<circle class="st6" cx="158.2" cy="312.4" r="21.8"/>
			<circle id="spoke2_1_" class="st9" cx="158.2" cy="312.4" r="13.5"/>
			<circle class="st8" cx="158.2" cy="312.4" r="6.9"/>
			<circle class="st6" cx="223.1" cy="302.7" r="25.5"/>
			<circle id="spoke3_1_" class="st10" cx="223.1" cy="302.7" r="16.4"/>
			<circle class="st8" cx="223.1" cy="302.7" r="9.1"/>
		</g>
		<path id="couplingrod_1_" class="st11" d="M90.8,316L221.4,291c1-0.2,1.9,0.5,2.1,1.4l0.3,1.4c0.2,1-0.5,1.9-1.4,2.1L91.8,321
			c-1,0.2-1.9-0.5-2.1-1.4l-0.3-1.4C89.2,317.2,89.9,316.2,90.8,316z"/>
	</g>
</g>
<g transform="translate(0) scale(1)">
	<g id="Train_2_" transform="translate(10)">
		<path id="frame_2_" class="st1" d="M334.4,221.6L496,297.3c5.5,2.6,7.8,9.1,5.3,14.5l-6.2,13.2c-2.6,5.5-9.1,7.8-14.5,5.3
			L319,254.5c-5.5-2.6-7.8-9.1-5.3-14.5l6.2-13.2C322.5,221.4,329,219,334.4,221.6z"/>
		<path id="engine_2_" class="st2" d="M357.5,172.4l95.6,44.8c5.5,2.6,7.8,9.1,5.3,14.5l-13.9,29.7c-2.6,5.5-9.1,7.8-14.5,5.3
			l-95.6-44.8c-5.5-2.6-7.8-9.1-5.3-14.5l13.9-29.7C345.5,172.2,352,169.9,357.5,172.4z"/>
		<path id="stack_2_" class="st3" d="M389.2,139.1l9.9,4.6c3.6,1.7,5.2,6,3.5,9.7l-12.4,26.4c-1.7,3.6-6,5.2-9.7,3.5l-9.9-4.6
			c-3.6-1.7-5.2-6-3.5-9.7l12.4-26.4C381.2,138.9,385.6,137.4,389.2,139.1z"/>
		<path id="roof_2_" class="st4" d="M480.5,141.6l75.8,35.5c3.6,1.7,5.2,6,3.5,9.7l-3.1,6.6c-1.7,3.6-6,5.2-9.7,3.5l-75.8-35.5
			c-3.6-1.7-5.2-6-3.5-9.7l3.1-6.6C472.5,141.5,476.9,139.9,480.5,141.6z"/>
		<path id="cab_2_" class="st5" d="M497.6,173.8l46.2,21.6c5.5,2.6,7.8,9.1,5.3,14.5l-38.6,82.4c-2.6,5.5-9.1,7.8-14.5,5.3
			L449.7,276c-5.5-2.6-7.8-9.1-5.3-14.5l38.6-82.4C485.6,173.6,492.1,171.2,497.6,173.8z"/>
		<path id="window_2_" class="st3" d="M503.1,196.5l19.8,9.3c3.6,1.7,5.2,6,3.5,9.7l-9.3,19.8c-1.7,3.6-6,5.2-9.7,3.5l-19.8-9.3
			c-3.6-1.7-5.2-6-3.5-9.7l9.3-19.8C495.1,196.3,499.4,194.7,503.1,196.5z"/>
		<g id="wheels_2_">
			<circle class="st6" cx="341.9" cy="265.7" r="21.8"/>
			<circle id="spoke1_2_" class="st7" cx="341.9" cy="265.7" r="12.7"/>
			<circle class="st8" cx="341.9" cy="265.7" r="5.5"/>
			<circle class="st6" cx="398" cy="292" r="21.8"/>
			<circle id="spoke2_2_" class="st9" cx="398" cy="292" r="13.5"/>
			<circle class="st8" cx="398" cy="292" r="6.9"/>
			<circle class="st6" cx="458.9" cy="316.5" r="25.5"/>
			<circle id="spoke3_2_" class="st10" cx="458.9" cy="316.5" r="16.4"/>
			<circle class="st8" cx="458.9" cy="316.5" r="9.1"/>
		</g>
		<path id="couplingrod_2_" class="st11" d="M338.1,260.9l125.2,44.6c0.9,0.3,1.4,1.4,1.1,2.3l-0.5,1.4c-0.3,0.9-1.4,1.4-2.3,1.1
			l-125.2-44.6c-0.9-0.3-1.4-1.4-1.1-2.3l0.5-1.4C336.1,261.1,337.2,260.6,338.1,260.9z"/>
	</g>
</g>
<g>
	<circle class="st12" cx="160.4" cy="225.6" r="132"/>
	<line class="st12" x1="239.5" y1="119.9" x2="72.3" y2="330.1"/>
</g>
<g>
	<circle class="st12" cx="445.5" cy="225.6" r="132"/>
	<line class="st12" x1="524.6" y1="119.9" x2="357.4" y2="330.1"/>
</g>
</svg>
