<?xml version="1.0" encoding="utf-8"?>
<!-- Generator: Adobe Illustrator 24.1.0, SVG Export Plug-In . SVG Version: 6.00 Build 0)  -->
<svg version="1.1"
	 id="Layer_1" xmlns:cc="http://web.resource.org/cc/" xmlns:dc="http://purl.org/dc/elements/1.1/" xmlns:inkscape="http://www.inkscape.org/namespaces/inkscape" xmlns:ns1="http://sozi.baierouge.fr" xmlns:rdf="http://www.w3.org/1999/02/22-rdf-syntax-ns#" xmlns:sodipodi="http://sodipodi.sourceforge.net/DTD/sodipodi-0.dtd" xmlns:svg="http://www.w3.org/2000/svg"
	 xmlns="http://www.w3.org/2000/svg" xmlns:xlink="http://www.w3.org/1999/xlink" x="0px" y="0px" viewBox="0 0 590 570"
	 style="enable-background:new 0 0 590 570;" xml:space="preserve">
<style type="text/css">
	.st0{fill:#35EBFF;stroke:#000000;stroke-width:10;stroke-miterlimit:10;}
	.st1{fill:#808080;stroke:#000000;stroke-width:5.4623;}
	.st2{fill:#00FF00;stroke:#000000;stroke-width:5.0981;}
	.st3{fill:#0000FF;stroke:#000000;stroke-width:5.0981;}
	.st4{fill:#FF0000;stroke:#000000;stroke-width:5.0981;}
	.st5{fill:#FFFF00;stroke:#000000;stroke-width:5.0981;}
	.st6{fill:#FF0000;stroke:#333333;stroke-width:9.1038;}
	.st7{fill:#FF0000;stroke:#333333;stroke-width:9.1038;stroke-dasharray:8.0113,7.6763;}
	.st8{fill:#FF0000;stroke:#333333;stroke-width:5.4623;}
	.st9{fill:#FF0000;stroke:#333333;stroke-width:7.6472;stroke-dasharray:8.3755,8.3828;}
	.st10{fill:#FF0000;stroke:#333333;stroke-width:9.1038;stroke-dasharray:10.1962,10.2035;}
	.st11{fill:#666666;}
	.st12{fill:none;stroke:#DF1900;stroke-width:10;stroke-miterlimit:10;}
</style>
<rect class="st0" width="590" height="570"/>
<g>
	<g>
		<path d="M148,495.3h17.3v8.3H148V495.3z"/>
		<path d="M172.9,507.4h9.4v-22.6H174v-7.3c5-1,8.1-2.2,11.4-4.3h8.7v34.1h7.8v9.5h-29V507.4z"/>
		<path d="M232.8,482H221v-9.9h35.5v9.9h-11.8v34.8h-11.8V482z"/>
		<path d="M263.1,472.1H280c9.6,0,17.9,3.3,17.9,14.4c0,10.8-8.3,15.3-17.9,15.3h-5.1v15h-11.8V472.1z M279.2,492.5
			c4.7,0,7.2-2.1,7.2-5.9c0-3.9-2.5-5.1-7.2-5.1h-4.3v11H279.2z M277.9,498.8l8-7.8l14.5,25.9h-13.2L277.9,498.8z"/>
		<path d="M314.4,472.1h14.3l13.6,44.7h-12.5l-5.1-21.7c-1.1-4.3-2.2-9.7-3.3-14.2h-0.3c-1,4.5-2.1,9.9-3.2,14.2l-5.1,21.7h-12.1
			L314.4,472.1z M310.5,498.2h21.9v9.2h-21.9V498.2z"/>
		<path d="M346.6,472.1h11.8v44.7h-11.8V472.1z"/>
		<path d="M368.3,472.1h12.1l9.9,20l4.3,10h0.3c-0.6-4.8-1.5-11.6-1.5-17.1v-12.9h11.3v44.7h-12.1l-9.9-20l-4.3-10h-0.3
			c0.6,5.1,1.5,11.6,1.5,17.1v12.9h-11.3V472.1z"/>
		<path d="M411.8,511.3l6.7-8.1c3.2,2.5,7.2,4.3,10.5,4.3c3.6,0,5.1-1.2,5.1-3.2c0-2.1-2.3-2.8-6.1-4.3l-5.6-2.3
			c-4.8-1.9-9-6-9-12.5c0-7.6,6.9-13.9,16.7-13.9c5.1,0,10.7,1.9,14.9,6l-5.9,7.4c-3-2.1-5.6-3.2-8.9-3.2c-2.9,0-4.7,1-4.7,3
			c0,2.1,2.5,2.9,6.6,4.5l5.4,2.1c5.6,2.2,8.7,6.1,8.7,12.2c0,7.6-6.3,14.3-17.5,14.3C423.1,517.7,416.6,515.6,411.8,511.3z"/>
	</g>
</g>
<g transform="translate(0) scale(1)">
	<g id="Train_1_" transform="translate(10)">
		<path id="frame_1_" class="st1" d="M188.2,233.8l161.1,76.6c5.4,2.6,7.8,9.1,5.2,14.6l-6.3,13.2c-2.6,5.4-9.1,7.8-14.6,5.2
			l-161.1-76.6c-5.4-2.6-7.8-9.1-5.2-14.6l6.3-13.2C176.2,233.6,182.7,231.2,188.2,233.8z"/>
		<path id="engine_1_" class="st2" d="M211.5,184.8l95.4,45.3c5.4,2.6,7.8,9.1,5.2,14.6l-14.1,29.6c-2.6,5.4-9.1,7.8-14.6,5.2
			L188,234.2c-5.4-2.6-7.8-9.1-5.2-14.6l14.1-29.6C199.5,184.6,206,182.2,211.5,184.8z"/>
		<path id="stack_1_" class="st3" d="M243.4,151.6l9.9,4.7c3.6,1.7,5.2,6.1,3.5,9.7l-12.5,26.3c-1.7,3.6-6.1,5.2-9.7,3.5l-9.9-4.7
			c-3.6-1.7-5.2-6.1-3.5-9.7l12.5-26.3C235.4,151.4,239.7,149.9,243.4,151.6z"/>
		<path id="roof_1_" class="st4" d="M334.7,154.7l75.6,36c3.6,1.7,5.2,6.1,3.5,9.7l-3.1,6.6c-1.7,3.6-6.1,5.2-9.7,3.5l-75.6-36
			c-3.6-1.7-5.2-6.1-3.5-9.7l3.1-6.6C326.7,154.5,331,153,334.7,154.7z"/>
		<path id="cab_1_" class="st5" d="M351.6,186.9l46,21.9c5.4,2.6,7.8,9.1,5.2,14.6l-39.1,82.2c-2.6,5.4-9.1,7.8-14.6,5.2l-46-21.9
			c-5.4-2.6-7.8-9.1-5.2-14.6l39.1-82.2C339.6,186.7,346.1,184.4,351.6,186.9z"/>
		<path id="window_1_" class="st3" d="M356.9,209.6l19.7,9.4c3.6,1.7,5.2,6.1,3.5,9.7l-9.4,19.7c-1.7,3.6-6.1,5.2-9.7,3.5l-19.7-9.4
			c-3.6-1.7-5.2-6.1-3.5-9.7l9.4-19.7C348.9,209.5,353.3,207.9,356.9,209.6z"/>
		<g id="wheels_1_">
			<circle class="st6" cx="195.4" cy="278" r="21.8"/>
			<circle id="spoke1_1_" class="st7" cx="195.4" cy="278" r="12.7"/>
			<circle class="st8" cx="195.4" cy="278" r="5.5"/>
			<circle class="st6" cx="251.3" cy="304.6" r="21.8"/>
			<circle id="spoke2_1_" class="st9" cx="251.3" cy="304.6" r="13.5"/>
			<circle class="st8" cx="251.3" cy="304.6" r="6.9"/>
			<circle class="st6" cx="312.1" cy="329.4" r="25.5"/>
			<circle id="spoke3_1_" class="st10" cx="312.1" cy="329.4" r="16.4"/>
			<circle class="st8" cx="312.1" cy="329.4" r="9.1"/>
		</g>
		<path id="couplingrod_1_" class="st11" d="M191.6,273.2l125,45.3c0.9,0.3,1.4,1.4,1.1,2.3l-0.5,1.4c-0.3,0.9-1.4,1.4-2.3,1.1
			l-125-45.3c-0.9-0.3-1.4-1.4-1.1-2.3l0.5-1.4C189.6,273.3,190.7,272.8,191.6,273.2z"/>
	</g>
</g>
<g>
	<circle class="st12" cx="292.4" cy="225.6" r="132"/>
	<line class="st12" x1="371.5" y1="119.9" x2="204.3" y2="330.1"/>
</g>
</svg>
