<?xml version="1.0" encoding="utf-8"?>
<!-- Generator: Adobe Illustrator 24.1.0, SVG Export Plug-In . SVG Version: 6.00 Build 0)  -->
<svg version="1.1"
	 id="Layer_1" xmlns:cc="http://web.resource.org/cc/" xmlns:dc="http://purl.org/dc/elements/1.1/" xmlns:inkscape="http://www.inkscape.org/namespaces/inkscape" xmlns:ns1="http://sozi.baierouge.fr" xmlns:rdf="http://www.w3.org/1999/02/22-rdf-syntax-ns#" xmlns:sodipodi="http://sodipodi.sourceforge.net/DTD/sodipodi-0.dtd" xmlns:svg="http://www.w3.org/2000/svg"
	 xmlns="http://www.w3.org/2000/svg" xmlns:xlink="http://www.w3.org/1999/xlink" x="0px" y="0px" viewBox="0 0 590 570"
	 style="enable-background:new 0 0 590 570;" xml:space="preserve">
<style type="text/css">
	.st0{fill:#35EBFF;stroke:#000000;stroke-width:10;stroke-miterlimit:10;}
	.st1{fill:#808080;stroke:#000000;stroke-width:3.0759;}
	.st2{fill:#00FF00;stroke:#000000;stroke-width:2.8709;}
	.st3{fill:#0000FF;stroke:#000000;stroke-width:2.8709;}
	.st4{fill:#FF0000;stroke:#000000;stroke-width:2.8709;}
	.st5{fill:#FFFF00;stroke:#000000;stroke-width:2.8709;}
	.st6{fill:#FF0000;stroke:#333333;stroke-width:5.1266;}
	.st7{fill:#FF0000;stroke:#333333;stroke-width:5.1266;stroke-dasharray:4.5114,4.3227;}
	.st8{fill:#FF0000;stroke:#333333;stroke-width:3.0759;}
	.st9{fill:#FF0000;stroke:#333333;stroke-width:4.3063;stroke-dasharray:4.7164,4.7205;}
	.st10{fill:#FF0000;stroke:#333333;stroke-width:5.1266;stroke-dasharray:5.7417,5.7458;}
	.st11{fill:#666666;}
	.st12{fill:none;stroke:#DF1900;stroke-width:5.6312;stroke-miterlimit:10;}
</style>
<rect class="st0" width="590" height="570"/>
<g>
	<g>
		<path d="M35,472.1h12.1l9.9,20l4.3,10h0.3c-0.6-4.8-1.5-11.6-1.5-17.1v-12.9h11.3v44.7H59.2l-9.9-20l-4.3-10h-0.3
			c0.6,5.1,1.5,11.6,1.5,17.1v12.9H35V472.1z"/>
		<path d="M79.3,494.3c0-14.7,8.4-23,20.8-23c12.4,0,20.8,8.3,20.8,23c0,14.7-8.4,23.4-20.8,23.4C87.7,517.7,79.3,509,79.3,494.3z
			 M108.7,494.3c0-8.1-3.3-12.8-8.7-12.8c-5.4,0-8.7,4.7-8.7,12.8c0,8.1,3.3,13.2,8.7,13.2C105.4,507.5,108.7,502.4,108.7,494.3z"/>
		<path d="M142.6,472.1h12.7l6.7,18.3c0.8,2.5,1.5,5.2,2.3,7.8h0.3c0.8-2.6,1.5-5.4,2.3-7.8l6.5-18.3H186v44.7h-10.7v-13.2
			c0-4.5,1-11.5,1.5-16h-0.3l-3.7,10.7l-5.5,14.8H161l-5.5-14.8l-3.6-10.7h-0.3c0.6,4.5,1.5,11.4,1.5,16v13.2h-10.6V472.1z"/>
		<path d="M194,494.3c0-14.7,8.4-23,20.8-23c12.4,0,20.8,8.3,20.8,23c0,14.7-8.4,23.4-20.8,23.4C202.4,517.7,194,509,194,494.3z
			 M223.5,494.3c0-8.1-3.3-12.8-8.7-12.8c-5.4,0-8.7,4.7-8.7,12.8c0,8.1,3.3,13.2,8.7,13.2C220.2,507.5,223.5,502.4,223.5,494.3z"/>
		<path d="M243.6,472.1h16.9c9.6,0,17.9,3.3,17.9,14.4c0,10.8-8.3,15.3-17.9,15.3h-5.1v15h-11.8V472.1z M259.7,492.5
			c4.7,0,7.2-2.1,7.2-5.9c0-3.9-2.5-5.1-7.2-5.1h-4.3v11H259.7z M258.4,498.8l8-7.8l14.5,25.9h-13.2L258.4,498.8z"/>
		<path d="M286.9,472.1h28.9v9.9h-17.1v7h14.6v9.9h-14.6v8h17.8v9.9h-29.6V472.1z"/>
		<path d="M347.5,482h-11.8v-9.9h35.5v9.9h-11.8v34.8h-11.8V482z"/>
		<path d="M377.7,472.1h16.9c9.6,0,17.9,3.3,17.9,14.4c0,10.8-8.3,15.3-17.9,15.3h-5.1v15h-11.8V472.1z M393.8,492.5
			c4.7,0,7.2-2.1,7.2-5.9c0-3.9-2.5-5.1-7.2-5.1h-4.3v11H393.8z M392.5,498.8l8-7.8l14.5,25.9h-13.2L392.5,498.8z"/>
		<path d="M429.1,472.1h14.3l13.6,44.7h-12.5l-5.1-21.7c-1.1-4.3-2.2-9.7-3.3-14.2h-0.3c-1,4.5-2.1,9.9-3.2,14.2l-5.1,21.7h-12.1
			L429.1,472.1z M425.2,498.2h21.9v9.2h-21.9V498.2z"/>
		<path d="M461.3,472.1h11.8v44.7h-11.8V472.1z"/>
		<path d="M483,472.1h12.1l9.9,20l4.3,10h0.3c-0.6-4.8-1.5-11.6-1.5-17.1v-12.9h11.3v44.7h-12.1l-9.9-20l-4.3-10h-0.3
			c0.6,5.1,1.5,11.6,1.5,17.1v12.9H483V472.1z"/>
		<path d="M526.5,511.3l6.7-8.1c3.2,2.5,7.2,4.3,10.5,4.3c3.6,0,5.1-1.2,5.1-3.2c0-2.1-2.3-2.8-6.1-4.3l-5.6-2.3
			c-4.8-1.9-9-6-9-12.5c0-7.6,6.9-13.9,16.7-13.9c5.1,0,10.7,1.9,14.9,6l-5.9,7.4c-3-2.1-5.6-3.2-8.9-3.2c-2.9,0-4.7,1-4.7,3
			c0,2.1,2.5,2.9,6.6,4.5l5.4,2.1c5.6,2.2,8.7,6.1,8.7,12.2c0,7.6-6.3,14.3-17.5,14.3C537.8,517.7,531.3,515.6,526.5,511.3z"/>
	</g>
</g>
<g transform="translate(0) scale(1)">
	<g id="Train_1_" transform="translate(10)">
		<path id="frame_1_" class="st1" d="M48.3,102.9l90.7,43.1c3.1,1.5,4.4,5.1,2.9,8.2l-3.5,7.4c-1.5,3.1-5.1,4.4-8.2,2.9l-90.7-43.1
			c-3.1-1.5-4.4-5.1-2.9-8.2l3.5-7.4C41.6,102.7,45.2,101.4,48.3,102.9z"/>
		<path id="engine_1_" class="st2" d="M61.4,75.3l53.7,25.5c3.1,1.5,4.4,5.1,2.9,8.2l-7.9,16.7c-1.5,3.1-5.1,4.4-8.2,2.9l-53.7-25.5
			c-3.1-1.5-4.4-5.1-2.9-8.2l7.9-16.7C54.7,75.2,58.4,73.9,61.4,75.3z"/>
		<path id="stack_1_" class="st3" d="M79.4,56.6l5.6,2.6c2,1,2.9,3.4,1.9,5.5l-7,14.8c-1,2-3.4,2.9-5.5,1.9l-5.6-2.6
			c-2-1-2.9-3.4-1.9-5.5l7-14.8C74.9,56.5,77.4,55.6,79.4,56.6z"/>
		<path id="roof_1_" class="st4" d="M130.8,58.3l42.6,20.3c2,1,2.9,3.4,1.9,5.5l-1.8,3.7c-1,2-3.4,2.9-5.5,1.9l-42.6-20.3
			c-2-1-2.9-3.4-1.9-5.5l1.8-3.7C126.3,58.2,128.8,57.4,130.8,58.3z"/>
		<path id="cab_1_" class="st5" d="M140.3,76.5l25.9,12.3c3.1,1.5,4.4,5.1,2.9,8.2l-22,46.3c-1.5,3.1-5.1,4.4-8.2,2.9L113,133.9
			c-3.1-1.5-4.4-5.1-2.9-8.2l22-46.3C133.6,76.3,137.3,75,140.3,76.5z"/>
		<path id="window_1_" class="st3" d="M143.3,89.3l11.1,5.3c2,1,2.9,3.4,1.9,5.5l-5.3,11.1c-1,2-3.4,2.9-5.5,1.9l-11.1-5.3
			c-2-1-2.9-3.4-1.9-5.5l5.3-11.1C138.9,89.2,141.3,88.3,143.3,89.3z"/>
		<g id="wheels_1_">
			<circle class="st6" cx="52.4" cy="127.8" r="12.3"/>
			<circle id="spoke1_1_" class="st7" cx="52.4" cy="127.8" r="7.2"/>
			<circle class="st8" cx="52.4" cy="127.8" r="3.1"/>
			<circle class="st6" cx="83.9" cy="142.7" r="12.3"/>
			<circle id="spoke2_1_" class="st9" cx="83.9" cy="142.7" r="7.6"/>
			<circle class="st8" cx="83.9" cy="142.7" r="3.9"/>
			<circle class="st6" cx="118.1" cy="156.7" r="14.4"/>
			<circle id="spoke3_1_" class="st10" cx="118.1" cy="156.7" r="9.2"/>
			<circle class="st8" cx="118.1" cy="156.7" r="5.1"/>
		</g>
		<path id="couplingrod_1_" class="st11" d="M50.3,125.1l70.4,25.5c0.5,0.2,0.8,0.8,0.6,1.3l-0.3,0.8c-0.2,0.5-0.8,0.8-1.3,0.6
			l-70.4-25.5c-0.5-0.2-0.8-0.8-0.6-1.3l0.3-0.8C49.1,125.1,49.7,124.9,50.3,125.1z"/>
	</g>
</g>
<g>
	<circle class="st12" cx="111.4" cy="98.3" r="74.3"/>
	<line class="st12" x1="155.9" y1="38.7" x2="61.8" y2="157.1"/>
</g>
<g transform="translate(0) scale(1)">
	<g id="Train_2_" transform="translate(10)">
		<path id="frame_2_" class="st1" d="M239.6,171.6l94.7-33.7c3.2-1.1,6.7,0.5,7.9,3.7l2.7,7.7c1.1,3.2-0.5,6.7-3.7,7.9L246.5,191
			c-3.2,1.1-6.7-0.5-7.9-3.7l-2.7-7.7C234.8,176.3,236.4,172.8,239.6,171.6z"/>
		<path id="engine_2_" class="st2" d="M229.4,142.9l56-19.9c3.2-1.1,6.7,0.5,7.9,3.7l6.2,17.4c1.1,3.2-0.5,6.7-3.7,7.9l-56,19.9
			c-3.2,1.1-6.7-0.5-7.9-3.7l-6.2-17.4C224.5,147.5,226.2,144,229.4,142.9z"/>
		<path id="stack_2_" class="st3" d="M228.9,116.9l5.8-2.1c2.1-0.8,4.5,0.4,5.2,2.5l5.5,15.5c0.8,2.1-0.4,4.5-2.5,5.2l-5.8,2.1
			c-2.1,0.8-4.5-0.4-5.2-2.5l-5.5-15.5C225.6,120,226.8,117.7,228.9,116.9z"/>
		<path id="roof_2_" class="st4" d="M266.5,81.8L310.9,66c2.1-0.8,4.5,0.4,5.2,2.5l1.4,3.9c0.8,2.1-0.4,4.5-2.5,5.2l-44.4,15.8
			c-2.1,0.8-4.5-0.4-5.2-2.5L264,87C263.2,84.9,264.3,82.6,266.5,81.8z"/>
		<path id="cab_2_" class="st5" d="M286,87.9l27.1-9.6c3.2-1.1,6.7,0.5,7.9,3.7l17.2,48.3c1.1,3.2-0.5,6.7-3.7,7.9l-27.1,9.6
			c-3.2,1.1-6.7-0.5-7.9-3.7l-17.2-48.3C281.2,92.6,282.8,89,286,87.9z"/>
		<path id="window_2_" class="st3" d="M297.2,94.8l11.6-4.1c2.1-0.8,4.5,0.4,5.2,2.5l4.1,11.6c0.8,2.1-0.4,4.5-2.5,5.2l-11.6,4.1
			c-2.1,0.8-4.5-0.4-5.2-2.5l-4.1-11.6C294,97.9,295.1,95.6,297.2,94.8z"/>
		<g id="wheels_2_">
			<circle class="st6" cx="260.1" cy="186.4" r="12.3"/>
			<circle id="spoke1_2_" class="st7" cx="260.1" cy="186.4" r="7.2"/>
			<circle class="st8" cx="260.1" cy="186.4" r="3.1"/>
			<circle class="st6" cx="293" cy="174.7" r="12.3"/>
			<circle id="spoke2_2_" class="st9" cx="293" cy="174.7" r="7.6"/>
			<circle class="st8" cx="293" cy="174.7" r="3.9"/>
			<circle class="st6" cx="327" cy="160.4" r="14.4"/>
			<circle id="spoke3_2_" class="st10" cx="327" cy="160.4" r="9.2"/>
			<circle class="st8" cx="327" cy="160.4" r="5.1"/>
		</g>
		<path id="couplingrod_2_" class="st11" d="M256.7,185.9l67.8-31.7c0.5-0.2,1.1,0,1.4,0.5l0.3,0.7c0.2,0.5,0,1.1-0.5,1.4
			l-67.8,31.7c-0.5,0.2-1.1,0-1.4-0.5l-0.3-0.7C256,186.8,256.2,186.2,256.7,185.9z"/>
	</g>
</g>
<g>
	<circle class="st12" cx="288.4" cy="127.8" r="74.3"/>
	<line class="st12" x1="332.9" y1="68.3" x2="238.8" y2="186.6"/>
</g>
<g transform="translate(0) scale(1)">
	<g id="Train_3_" transform="translate(10)">
		<path id="frame_3_" class="st1" d="M91.4,287.1l99.6,13.5c3.4,0.5,5.7,3.6,5.3,6.9l-1.1,8.1c-0.5,3.4-3.6,5.7-6.9,5.3l-99.6-13.5
			c-3.4-0.5-5.7-3.6-5.3-6.9l1.1-8.1C84.9,289,88,286.6,91.4,287.1z"/>
		<path id="engine_3_" class="st2" d="M95.5,256.8l58.9,8c3.4,0.5,5.7,3.6,5.3,6.9l-2.5,18.3c-0.5,3.4-3.6,5.7-6.9,5.3l-58.9-8
			c-3.4-0.5-5.7-3.6-5.3-6.9l2.5-18.3C89,258.7,92.1,256.3,95.5,256.8z"/>
		<path id="stack_3_" class="st3" d="M106.9,233.5l6.1,0.8c2.2,0.3,3.8,2.4,3.5,4.6l-2.2,16.3c-0.3,2.2-2.4,3.8-4.6,3.5l-6.1-0.8
			c-2.2-0.3-3.8-2.4-3.5-4.6l2.2-16.3C102.6,234.8,104.6,233.2,106.9,233.5z"/>
		<path id="roof_3_" class="st4" d="M156.4,219.5l46.7,6.3c2.2,0.3,3.8,2.4,3.5,4.6l-0.5,4.1c-0.3,2.2-2.4,3.8-4.6,3.5l-46.7-6.3
			c-2.2-0.3-3.8-2.4-3.5-4.6l0.5-4.1C152.1,220.8,154.1,219.2,156.4,219.5z"/>
		<path id="cab_3_" class="st5" d="M171,233.9l28.5,3.8c3.4,0.5,5.7,3.6,5.3,6.9l-6.9,50.8c-0.5,3.4-3.6,5.7-6.9,5.3l-28.5-3.8
			c-3.4-0.5-5.7-3.6-5.3-6.9l6.9-50.8C164.5,235.8,167.6,233.4,171,233.9z"/>
		<path id="window_3_" class="st3" d="M177.7,245.1l12.2,1.6c2.2,0.3,3.8,2.4,3.5,4.6l-1.6,12.2c-0.3,2.2-2.4,3.8-4.6,3.5l-12.2-1.6
			c-2.2-0.3-3.8-2.4-3.5-4.6l1.6-12.2C173.4,246.4,175.5,244.8,177.7,245.1z"/>
		<g id="wheels_3_">
			<circle class="st6" cx="102.8" cy="309.5" r="12.3"/>
			<circle id="spoke1_3_" class="st7" cx="102.8" cy="309.5" r="7.2"/>
			<circle class="st8" cx="102.8" cy="309.5" r="3.1"/>
			<circle class="st6" cx="137.4" cy="314.2" r="12.3"/>
			<circle id="spoke2_3_" class="st9" cx="137.4" cy="314.2" r="7.6"/>
			<circle class="st8" cx="137.4" cy="314.2" r="3.9"/>
			<circle class="st6" cx="174.2" cy="317.1" r="14.4"/>
			<circle id="spoke3_3_" class="st10" cx="174.2" cy="317.1" r="9.2"/>
			<circle class="st8" cx="174.2" cy="317.1" r="5.1"/>
		</g>
		<path id="couplingrod_3_" class="st11" d="M100,307.6l74.8,2.9c0.6,0,1,0.5,1,1.1l0,0.8c0,0.6-0.5,1-1.1,1l-74.8-2.9
			c-0.6,0-1-0.5-1-1.1l0-0.8C98.9,308,99.4,307.6,100,307.6z"/>
	</g>
</g>
<g>
	<circle class="st12" cx="152.6" cy="265.7" r="74.3"/>
	<line class="st12" x1="197.1" y1="206.2" x2="102.9" y2="324.6"/>
</g>
<g transform="translate(0) scale(1)">
	<g id="Train_4_" transform="translate(10)">
		<path id="frame_4_" class="st1" d="M429.3,128.1l100.4-2.6c3.4-0.1,6.2,2.6,6.3,6l0.2,8.2c0.1,3.4-2.6,6.2-6,6.3l-100.4,2.6
			c-3.4,0.1-6.2-2.6-6.3-6l-0.2-8.2C423.2,131,425.9,128.2,429.3,128.1z"/>
		<path id="engine_4_" class="st2" d="M428.6,97.6L488,96c3.4-0.1,6.2,2.6,6.3,6l0.5,18.4c0.1,3.4-2.6,6.2-6,6.3l-59.4,1.5
			c-3.4,0.1-6.2-2.6-6.3-6l-0.5-18.4C422.5,100.5,425.2,97.6,428.6,97.6z"/>
		<path id="stack_4_" class="st3" d="M436.1,72.7l6.1-0.2c2.3-0.1,4.1,1.7,4.2,4l0.4,16.4c0.1,2.3-1.7,4.1-4,4.2l-6.1,0.2
			c-2.3,0.1-4.1-1.7-4.2-4l-0.4-16.4C432.1,74.7,433.9,72.8,436.1,72.7z"/>
		<path id="roof_4_" class="st4" d="M482.8,51l47.1-1.2c2.3-0.1,4.1,1.7,4.2,4l0.1,4.1c0.1,2.3-1.7,4.1-4,4.2l-47.1,1.2
			c-2.3,0.1-4.1-1.7-4.2-4l-0.1-4.1C478.7,53,480.5,51.1,482.8,51z"/>
		<path id="cab_4_" class="st5" d="M499.5,62.9l28.7-0.7c3.4-0.1,6.2,2.6,6.3,6l1.3,51.2c0.1,3.4-2.6,6.2-6,6.3l-28.7,0.7
			c-3.4,0.1-6.2-2.6-6.3-6l-1.3-51.2C493.4,65.8,496.1,63,499.5,62.9z"/>
		<path id="window_4_" class="st3" d="M507.9,73l12.3-0.3c2.3-0.1,4.1,1.7,4.2,4l0.3,12.3c0.1,2.3-1.7,4.1-4,4.2l-12.3,0.3
			c-2.3,0.1-4.1-1.7-4.2-4l-0.3-12.3C503.9,74.9,505.7,73,507.9,73z"/>
		<g id="wheels_4_">
			<circle class="st6" cx="444.2" cy="148.4" r="12.3"/>
			<circle id="spoke1_4_" class="st7" cx="444.2" cy="148.4" r="7.2"/>
			<circle class="st8" cx="444.2" cy="148.4" r="3.1"/>
			<circle class="st6" cx="479.1" cy="147.5" r="12.3"/>
			<circle id="spoke2_4_" class="st9" cx="479.1" cy="147.5" r="7.6"/>
			<circle class="st8" cx="479.1" cy="147.5" r="3.9"/>
			<circle class="st6" cx="515.9" cy="144.6" r="14.4"/>
			<circle id="spoke3_4_" class="st10" cx="515.9" cy="144.6" r="9.2"/>
			<circle class="st8" cx="515.9" cy="144.6" r="5.1"/>
		</g>
		<path id="couplingrod_4_" class="st11" d="M441.1,147l74.3-9.1c0.6-0.1,1.1,0.3,1.1,0.9l0.1,0.8c0.1,0.6-0.3,1.1-0.9,1.1
			l-74.3,9.1c-0.6,0.1-1.1-0.3-1.1-0.9l-0.1-0.8C440.1,147.6,440.5,147,441.1,147z"/>
	</g>
</g>
<g>
	<circle class="st12" cx="487.6" cy="98.5" r="74.3"/>
	<line class="st12" x1="532.1" y1="39" x2="437.9" y2="157.4"/>
</g>
<g transform="translate(0) scale(1)">
	<g id="Train_5_" transform="translate(10)">
		<path id="frame_5_" class="st1" d="M398,304.5l50.3-87c1.7-2.9,5.5-3.9,8.4-2.2l7.1,4.1c2.9,1.7,3.9,5.5,2.2,8.4l-50.3,87
			c-1.7,2.9-5.5,3.9-8.4,2.2l-7.1-4.1C397.3,311.2,396.3,307.4,398,304.5z"/>
		<path id="engine_5_" class="st2" d="M371.5,289.2l29.8-51.5c1.7-2.9,5.5-3.9,8.4-2.2l16,9.2c2.9,1.7,3.9,5.5,2.2,8.4l-29.8,51.5
			c-1.7,2.9-5.5,3.9-8.4,2.2l-16-9.2C370.8,295.9,369.8,292.1,371.5,289.2z"/>
		<path id="stack_5_" class="st3" d="M354.3,269.8l3.1-5.3c1.1-2,3.6-2.6,5.6-1.5l14.2,8.2c2,1.1,2.6,3.6,1.5,5.6l-3.1,5.3
			c-1.1,2-3.6,2.6-5.6,1.5l-14.2-8.2C353.9,274.2,353.2,271.7,354.3,269.8z"/>
		<path id="roof_5_" class="st4" d="M360.2,218.7l23.6-40.8c1.1-2,3.6-2.6,5.6-1.5l3.6,2.1c2,1.1,2.6,3.6,1.5,5.6l-23.6,40.8
			c-1.1,2-3.6,2.6-5.6,1.5l-3.6-2.1C359.7,223.1,359.1,220.6,360.2,218.7z"/>
		<path id="cab_5_" class="st5" d="M379,210.6l14.4-24.9c1.7-2.9,5.5-3.9,8.4-2.2l44.4,25.7c2.9,1.7,3.9,5.5,2.2,8.4l-14.4,24.9
			c-1.7,2.9-5.5,3.9-8.4,2.2L381.3,219C378.4,217.3,377.3,213.6,379,210.6z"/>
		<path id="window_5_" class="st3" d="M392,208.6l6.2-10.7c1.1-2,3.6-2.6,5.6-1.5l10.7,6.2c2,1.1,2.6,3.6,1.5,5.6l-6.2,10.7
			c-1.1,2-3.6,2.6-5.6,1.5l-10.7-6.2C391.6,213.1,390.9,210.6,392,208.6z"/>
		<g id="wheels_5_">
			<circle class="st6" cx="423.1" cy="302.4" r="12.3"/>
			<circle id="spoke1_5_" class="st7" cx="423.1" cy="302.4" r="7.2"/>
			<circle class="st8" cx="423.1" cy="302.4" r="3.1"/>
			<circle class="st6" cx="440.6" cy="272.2" r="12.3"/>
			<circle id="spoke2_5_" class="st9" cx="440.6" cy="272.2" r="7.6"/>
			<circle class="st8" cx="440.6" cy="272.2" r="3.9"/>
			<circle class="st6" cx="457.2" cy="239.2" r="14.4"/>
			<circle id="spoke3_5_" class="st10" cx="457.2" cy="239.2" r="9.2"/>
			<circle class="st8" cx="457.2" cy="239.2" r="5.1"/>
		</g>
		<path id="couplingrod_5_" class="st11" d="M420.2,304.3l31.1-68.1c0.2-0.5,0.8-0.7,1.4-0.5l0.7,0.3c0.5,0.2,0.7,0.8,0.5,1.4
			l-31.1,68.1c-0.2,0.5-0.8,0.7-1.4,0.5l-0.7-0.3C420.2,305.4,420,304.8,420.2,304.3z"/>
	</g>
</g>
<g>
	<circle class="st12" cx="413.2" cy="243.3" r="74.3"/>
	<line class="st12" x1="457.8" y1="183.8" x2="363.6" y2="302.2"/>
</g>
<g transform="translate(0) scale(1)">
	<g id="Train_6_" transform="translate(10)">
		<path id="frame_6_" class="st1" d="M237.9,348.5l64.3,77.2c2.2,2.6,1.8,6.5-0.8,8.7l-6.3,5.2c-2.6,2.2-6.5,1.8-8.7-0.8l-64.3-77.2
			c-2.2-2.6-1.8-6.5,0.8-8.7l6.3-5.2C231.9,345.5,235.7,345.9,237.9,348.5z"/>
		<path id="engine_6_" class="st2" d="M261.4,328.9l38.1,45.7c2.2,2.6,1.8,6.5-0.8,8.7l-14.2,11.8c-2.6,2.2-6.5,1.8-8.7-0.8
			l-38.1-45.7c-2.2-2.6-1.8-6.5,0.8-8.7l14.2-11.8C255.3,325.9,259.2,326.3,261.4,328.9z"/>
		<path id="stack_6_" class="st3" d="M285.5,319.5l3.9,4.7c1.4,1.7,1.2,4.3-0.5,5.8l-12.6,10.5c-1.7,1.4-4.3,1.2-5.8-0.5l-3.9-4.7
			c-1.4-1.7-1.2-4.3,0.5-5.8l12.6-10.5C281.5,317.5,284.1,317.7,285.5,319.5z"/>
		<path id="roof_6_" class="st4" d="M331.5,342.6l30.2,36.2c1.4,1.7,1.2,4.3-0.5,5.8l-3.2,2.6c-1.7,1.4-4.3,1.2-5.8-0.5L322,350.5
			c-1.4-1.7-1.2-4.3,0.5-5.8l3.2-2.6C327.4,340.6,330,340.8,331.5,342.6z"/>
		<path id="cab_6_" class="st5" d="M332.5,363.1l18.4,22.1c2.2,2.6,1.8,6.5-0.8,8.7l-39.4,32.8c-2.6,2.2-6.5,1.8-8.7-0.8l-18.4-22.1
			c-2.2-2.6-1.8-6.5,0.8-8.7l39.4-32.8C326.5,360.1,330.3,360.5,332.5,363.1z"/>
		<path id="window_6_" class="st3" d="M329.9,375.9l7.9,9.5c1.4,1.7,1.2,4.3-0.5,5.8l-9.5,7.9c-1.7,1.4-4.3,1.2-5.8-0.5l-7.9-9.5
			c-1.4-1.7-1.2-4.3,0.5-5.8l9.5-7.9C325.9,374,328.4,374.2,329.9,375.9z"/>
		<g id="wheels_6_">
			<circle class="st6" cx="231.2" cy="372.7" r="12.3"/>
			<circle id="spoke1_6_" class="st7" cx="231.2" cy="372.7" r="7.2"/>
			<circle class="st8" cx="231.2" cy="372.7" r="3.1"/>
			<circle class="st6" cx="253.5" cy="399.5" r="12.3"/>
			<circle id="spoke2_6_" class="st9" cx="253.5" cy="399.5" r="7.6"/>
			<circle class="st8" cx="253.5" cy="399.5" r="3.9"/>
			<circle class="st6" cx="278.7" cy="426.6" r="14.4"/>
			<circle id="spoke3_6_" class="st10" cx="278.7" cy="426.6" r="9.2"/>
			<circle class="st8" cx="278.7" cy="426.6" r="5.1"/>
		</g>
		<path id="couplingrod_6_" class="st11" d="M230.4,369.4l53.2,52.7c0.4,0.4,0.4,1,0,1.5l-0.6,0.6c-0.4,0.4-1,0.4-1.4,0l-53.2-52.7
			c-0.4-0.4-0.4-1,0-1.5l0.6-0.6C229.3,369,230,369,230.4,369.4z"/>
	</g>
</g>
<g>
	<circle class="st12" cx="295" cy="366.5" r="74.3"/>
	<line class="st12" x1="339.5" y1="307" x2="245.4" y2="425.3"/>
</g>
</svg>
